<svg xmlns="http://www.w3.org/2000/svg" width="50" height="100"><path fill="#BDA770" d="M27.357 77.316c.057.3.086.605.086.92 0 2.673-2.175 4.846-4.85 4.846-2.672 0-4.846-2.173-4.846-4.846 0-1.154.41-2.27 1.156-3.145.368-.428.802-.787 1.283-1.063l-.17-1.653c-.877.386-1.665.97-2.296 1.708-.985 1.156-1.53 2.632-1.53 4.154 0 3.53 2.873 6.402 6.403 6.402 2.768 0 5.13-1.764 6.02-4.227l-1.256-3.094zM30.392 82.618l-2.518-6.184h-6.62l-.92-8.906 1.548-.158.775 7.507h6.264l2.325 5.713 2.274-.928.585 1.442zM26.894 73.467h-5.222V71.91h4.603z"/><circle fill="#BDA770" cx="22.152" cy="67.244" r="1.865"/><path fill="#999" d="M27.357 27.322c.057.3.086.605.086.92 0 2.673-2.175 4.846-4.85 4.846-2.672 0-4.846-2.173-4.846-4.846 0-1.154.41-2.27 1.156-3.145.368-.43.802-.788 1.283-1.064l-.17-1.653c-.877.386-1.665.97-2.296 1.708-.985 1.156-1.53 2.632-1.53 4.154 0 3.53 2.873 6.402 6.403 6.402 2.768 0 5.13-1.764 6.02-4.227l-1.256-3.095zM30.392 32.624l-2.518-6.185h-6.62l-.92-8.906 1.548-.16.775 7.508h6.264l2.325 5.713 2.274-.928.585 1.443zM26.894 23.472h-5.222v-1.556h4.603z"/><circle fill="#999" cx="22.152" cy="17.25" r="1.865"/></svg>