<?xml version="1.0" encoding="utf-8"?>
<!-- Generator: Adobe Illustrator 16.0.3, SVG Export Plug-In . SVG Version: 6.00 Build 0)  -->
<!DOCTYPE svg PUBLIC "-//W3C//DTD SVG 1.1//EN" "http://www.w3.org/Graphics/SVG/1.1/DTD/svg11.dtd">
<svg version="1.1" id="Layer_1" xmlns="http://www.w3.org/2000/svg" xmlns:xlink="http://www.w3.org/1999/xlink" x="0px" y="0px"
  width="50px" height="100px" viewBox="0 0 50 100" enable-background="new 0 0 50 100" xml:space="preserve">
<g>
 <path fill="#BDA770" d="M27.357,77.316c0.057,0.3,0.086,0.605,0.086,0.92c0,2.673-2.175,4.846-4.849,4.846
  c-2.673,0-4.847-2.173-4.847-4.846c0-1.154,0.411-2.27,1.156-3.145c0.368-0.429,0.802-0.788,1.283-1.064l-0.171-1.653
  c-0.876,0.386-1.664,0.969-2.295,1.708c-0.985,1.156-1.529,2.632-1.529,4.154c0,3.53,2.872,6.402,6.402,6.402
  c2.768,0,5.129-1.764,6.021-4.227L27.357,77.316z"/>
 <polygon fill="#BDA770" points="30.392,82.618 27.874,76.434 21.253,76.434 20.335,67.528 21.882,67.37 22.657,74.877 
  28.921,74.877 31.245,80.59 33.519,79.662 34.105,81.104  "/>
 <g>
  <polygon fill="#BDA770" points="26.894,73.467 21.672,73.467 21.672,71.91 26.275,71.91   "/>
 </g>
 <circle fill="#BDA770" cx="22.152" cy="67.244" r="1.865"/>
</g>
<g>
 <path fill="#999999" d="M27.357,27.322c0.057,0.3,0.086,0.605,0.086,0.92c0,2.673-2.175,4.846-4.849,4.846
  c-2.673,0-4.847-2.173-4.847-4.846c0-1.154,0.411-2.27,1.156-3.145c0.368-0.429,0.802-0.788,1.283-1.064l-0.171-1.653
  c-0.876,0.386-1.664,0.969-2.295,1.708c-0.985,1.156-1.529,2.632-1.529,4.154c0,3.53,2.872,6.402,6.402,6.402
  c2.768,0,5.129-1.764,6.021-4.227L27.357,27.322z"/>
 <polygon fill="#999999" points="30.392,32.624 27.874,26.439 21.253,26.439 20.335,17.534 21.882,17.375 22.657,24.882 
  28.921,24.882 31.245,30.595 33.519,29.667 34.105,31.11  "/>
 <g>
  <polygon fill="#999999" points="26.894,23.472 21.672,23.472 21.672,21.916 26.275,21.916   "/>
 </g>
 <circle fill="#999999" cx="22.152" cy="17.25" r="1.865"/>
</g>
</svg>
