<?xml version="1.0" encoding="utf-8"?>
<!-- Generator: Adobe Illustrator 18.1.0, SVG Export Plug-In . SVG Version: 6.00 Build 0)  -->
<svg version="1.2" baseProfile="tiny" id="Layer_1" xmlns="http://www.w3.org/2000/svg" xmlns:xlink="http://www.w3.org/1999/xlink"
	 x="0px" y="0px" viewBox="-280 347 50 100" xml:space="preserve">
<path fill="#3950A3" d="M-270.1,373.1c0.1,0.1,0.2,0.3,0.3,0.5l0,0.1c-0.4,0.3-0.8,0.6-0.9,1l0,0c0.9-1.1,2.2-1.7,3.7-1.6
	c1,0.2,1.8,1,2.5,1.8c1.4-0.1,2.5,0.8,3.2,1.9l0.3,0.4c-0.5-0.1-1-0.1-1.4,0.1c0.5,0.1,1.1,0.1,1.6,0.3c1,0.2,1.7,0.9,2.5,1.7
	c0.6,0.4,1.5,0.3,2.2,0.4c0.4,0.1,0.8,0.3,1.3,0.2c1.3-0.3,2.7-0.6,4.1-0.6c3.1-0.1,5.8,0.9,8.5,1.9c1.1,0.4,2.2,1.2,3,2.3
	c1.3,1.7,3,3.7,5.1,4.3c0.5,0.1,1.1,0,1.6-0.3c0.6-0.4,0.8-1.3,0.6-2c-0.2-0.5-0.4-1-0.9-1.3c-0.7-0.6-1.8-1.1-1.6-2.2
	c0.3-0.8,1-1.5,1.5-2.2l0,0c0,0.5,0.1,1,0.4,1.4c0.1-0.1,0-0.3,0.1-0.4c0.1-0.2,0.2-0.4,0.4-0.6c0.1,0.3,0.2,0.7,0.3,1
	c0.1,0.5,0.1,1.1,0,1.5c0,0,0,0.1,0,0c0.1-0.2,0.3-0.4,0.5-0.5c-0.7,1.5,0.5,3,0,4.6c-0.1,0.7-0.8,1.4-1.4,1.5
	c-0.4,0.2-0.9,0.2-1.4,0.1c-1.4-0.1-2.7-0.8-3.9-1.4c-0.1,0-0.2-0.2-0.4-0.2c0.3,0.5,0.7,1,1.2,1.4c1.1,0.9,2.3,1.7,3.8,1.9
	c0.7,0.2,1.6,0.1,2.1,0.6c0.3,0.5,0.1,1.2,0.2,1.8c0.1,1,0.6,1.8,1,2.7c0.1,0.3-0.1,0.6-0.4,0.8c-0.5,0.2-0.6,0.8-1,1.1
	c-0.4,0-0.8,0-1.2,0c0-0.2,0.1-0.4,0.2-0.5c0.1-0.2,0.4-0.2,0.5-0.4c-0.3,0-0.7,0.2-0.8,0.5l-0.1,0.4c-0.3,0-0.7,0-1,0
	c0-0.2,0.2-0.3,0.2-0.5c0.1-0.3,0.5-0.3,0.7-0.5c-0.1,0-0.2,0.1-0.3,0c-0.2,0.1-0.4,0.1-0.5,0.3c-0.1,0.2-0.3,0.4-0.4,0.7
	c-0.2,0-0.4,0-0.7,0c-0.1,0-0.1-0.1,0-0.2c0.2-0.3,0.3-0.6,0.5-0.8c0.3-0.1,0.8,0,1.1-0.2c0.3-0.2,0.7-0.3,0.8-0.7
	c0-0.7-0.3-1.4-0.6-2c-0.4-0.6-1-0.8-1.7-0.9c-1.5-0.2-3.2-0.2-4.7-0.7c-1.5-0.5-2.9-1.3-4.2-2.4c-0.8-0.8-1.7-1.8-2.8-2.2
	c-1-0.2-2,0.3-2.8,0.7c-1.6,0.8-3.2,1.7-4.9,2.1c-1.1,0.4-2.5,0.3-3.7,0.3c-0.4-1,0.4-2.4-0.7-3.1c-0.7-0.4-1.6-1.1-1.9-1.8
	c0,0,0,0,0,0.1l0-0.1l0,0c0.1,0.9,1,1.7,1.7,2.2c0.9,0.7,0.1,2.2,0.8,3c-0.2,0-0.4-0.1-0.5-0.3l0,0c0,0.4,0,0.9,0.2,1.3
	c-0.2-0.1-0.3-0.2-0.4-0.4c0,0.5,0.2,1,0.3,1.4c0.3,1.1,0.8,2.1,0.9,3.2c0,0.7-0.9,0.7-1.2,1.2c-0.1,0.1-0.2,0.2-0.3,0.2
	c-0.5,0-1.1,0-1.7,0c-0.1-0.1,0-0.2,0-0.4c0.1-0.4,0.5-0.4,0.7-0.6c-0.3,0-0.7,0.1-0.9,0.4c-0.1,0.2-0.1,0.4-0.2,0.6
	c-0.2,0-0.5,0-0.7,0c0-0.1,0.1-0.3,0.1-0.4c0.1-0.3,0.5-0.5,0.8-0.7c0,0,0,0,0-0.1c-0.2,0-0.4,0.1-0.7,0.2c-0.2,0.2-0.4,0.5-0.6,0.7
	c0,0.1,0,0.2-0.1,0.3h-0.5c-0.1-0.3,0.1-0.4,0.3-0.6c0.2-0.2,0.4-0.6,0.7-0.7c0.6,0,1.4,0.1,1.7-0.5c0.2-0.5-0.2-0.9-0.3-1.4
	c-0.8-1.8-2.5-3-4-4.4c-0.8-1-1.5-2-1.5-3.3c0-0.7,0.2-1.5,0-2.3c0,0,0,0-0.1,0c0,0.3,0,0.5,0,0.7c-0.1,1.1-0.5,2.2-0.1,3.1
	c0.2,0.7,0.9,1.5,1.4,2.1c-0.8-0.3-1.6-0.4-2.1-1.3c-0.1-0.2-0.2-0.7-0.1-0.9c0-0.1,0.2-0.1,0.2-0.2c-0.6-0.4-0.8-1.2-0.9-2v0
	c-0.1,0.2,0,0.4-0.1,0.6c0,0.5,0.1,1,0.5,1.4c-0.2,0.2-0.4,0.7-0.3,1c0.1,0.6,0.6,0.9,1.2,1.1c0.3,0.2,0.6,0.2,0.9,0.3
	c-0.7,0.1-1.5,0.3-2.1,0c-0.6-0.2-1.1-0.7-1.2-1.4c-0.1-0.6-0.1-1.1-0.6-1.5c0.3,0.1,0.6,0.4,0.8,0.6c0,0,0-0.1,0-0.1
	c-0.3-0.6-0.9-0.9-1.3-1.3c-0.5-0.8-0.3-1.6-0.2-2.5c0.1-0.4,0.2-0.8,0.3-1.2c-0.1,0-0.1,0.1-0.1,0.1c-0.4,0.9-0.7,1.8-0.6,2.9
	c0,0.5,0.4,1.2,0.9,1.6c0.5,0.5,0.3,1.3,0.7,1.9c0.4,0.7,1.1,1,1.7,1.5v0c-0.5-0.1-1-0.2-1.5-0.2c0.1,0.6,0.2,1.3,0,1.9
	c-0.4-1-1.4-1.7-2.2-2.4c-0.7-0.7-0.8-1.8-0.4-2.6c0.2,0.9,1,1.6,1.6,2.3c0.2,0.2,0.3,0.5,0.4,0.7c0-0.9-0.6-1.3-1-2
	c-0.3-0.5-0.7-1.1-0.7-1.6c0-0.1,0-0.2-0.1-0.3l0,0.1c0,0.1,0,0.3-0.1,0.4c-0.5,0.7-1,1.1-0.2,2.6c-0.9-0.7-1.5-1.7-1.6-2.8
	c0-0.3,0-0.5,0-0.8c0.2,0.1,0.3,0.2,0.4,0.3l0,0c-0.3-1.4,0-2.7,0.2-4.3l0,0c-0.2,0.3-0.2,0.6-0.4,0.9c0,0.1,0,0.3-0.1,0.4h0
	c0,0.1,0,0.2-0.1,0.3c-0.1,0.7-0.2,1.5-0.1,2.1c-0.5-0.7-0.6-1.5-0.5-2.4l0.1-0.5c-0.1,0-0.2,0.2-0.3,0.3c0.1-0.4,0.2-1.1-0.2-1.5
	c-0.3,0-0.4,0.3-0.6,0.5c-0.2,0.4-0.6,0.7-1.1,0.8c-0.2,0.1-0.3,0.3-0.3,0.5c-0.3-0.1-0.7-0.3-0.8-0.7c-0.1-0.2-0.2-0.4-0.3-0.6
	c0-0.1,0-0.2-0.1-0.3c0.1-0.1,0-0.3,0.1-0.3c0.4,0,0.7,0.3,1,0.4c0.2,0,0.4-0.1,0.5-0.3l0-0.2c-0.1,0-0.1-0.1-0.1-0.1
	c-0.4-0.4-1.1-0.1-1.6-0.2c-0.4-0.1-0.5-0.6-0.7-0.9c-0.1-0.1-0.3-0.3-0.3-0.5c0.1-0.1,0.3,0,0.5,0c0.1,0,0.3-0.1,0.4-0.1
	c0,0.1,0,0.2-0.1,0.2v0c-0.1,0-0.2-0.1-0.3,0c-0.1,0.1-0.1,0.3-0.1,0.4c0,0,0.1,0,0.1-0.1c0.1-0.1,0.3-0.1,0.5-0.3
	c0.1-0.2,0.2-0.4,0.1-0.6c-0.2,0.2-0.6,0.1-0.8,0.1c0.1-0.3,0.5-0.6,0.7-0.9c0.4-0.3,0.8-0.6,1-1.1l0.4-0.4c0.1-0.4,0.4-0.9,0.9-1
	c0.2-0.1,0.5-0.1,0.7-0.2c0.7-0.7,1.6-0.9,2.2-1.7c0.3-0.4,0.5-0.9,0.6-1.4C-270.7,372.5-270.4,372.8-270.1,373.1 M-267.9,373.9
	c-0.2,0.1-0.4,0.2-0.7,0.3c-0.8,0.4-1.3,1.3-1.2,2.1c0,0.5,0.2,0.9,0.3,1.4c-0.3-0.5-0.6-1.1-0.7-1.7c0,0.3,0.1,0.5,0.1,0.8h0
	c-0.4-0.3-0.9-0.6-1.1-1.1c0,0.1,0,0.2,0,0.3c0.3,0.6,0.6,1,1.1,1.2l0.6,0.7c0.4,0.8,0.2,1.8-0.3,2.5c-0.3,0.4-0.6,0.8-1,1.2
	c0.1-0.5,0.2-1,0.3-1.5c0,0-0.1,0.1-0.1,0.2c-0.3,1-0.7,1.8-1.1,2.9c0-0.6,0.2-1.3,0.2-1.8c-0.4,1-0.6,2.3-0.3,3.4h0
	c0,0,0-0.1,0-0.1c0-0.8,0.5-1.5,0.8-2.1c0.5-1,1.4-1.7,1.8-2.7c0.5-1.3-0.3-2.4-0.3-3.7c0-0.8,0.4-1.6,1.2-1.9l0,0
	c-0.1,0.3-0.3,0.6-0.3,0.9c-0.1,0.6,0,1.2-0.2,1.8c0,0.1-0.1,0.3-0.1,0.4c0.4-0.7,0.7-1.3,0.7-2.2c0-0.5,0.2-0.9,0.3-1.3
	C-267.9,373.9-267.9,373.9-267.9,373.9 M-267.5,375.5c-0.2,0.3-0.4,0.5-0.4,0.8c-0.4,1.3,0.7,2.2,0.4,3.5c0,0,0,0.1,0,0.1h0
	c0.4-0.9,0.1-1.8-0.1-2.6C-267.8,376.7-267.9,376.1-267.5,375.5L-267.5,375.5z M-274.7,376.3c-0.1,0.1-0.2,0.3-0.2,0.5
	c0.1,0.1,0.1,0,0.2,0c0,0,0.1,0.1,0,0.1c-0.3,0.1-0.5,0.3-0.8,0.3c0,0-0.1,0-0.1,0.1c0.2,0,0.4,0,0.5,0c0.5-0.2,1-0.5,1.5-0.5
	c0,0,0,0,0-0.1c0,0,0-0.1-0.1-0.1C-273.9,376.5-274.4,376.6-274.7,376.3 M-264.1,376.6c-0.1,0.6-0.5,0.9-0.9,1.3
	c-0.5,0.5-1,1.3-1,2.1c0,1.3,1,2.1,0.7,3.4l0,0c-0.4-1.1-1.4-1.8-1.4-3c0-0.9,0.5-1.8,1-2.4c0.1-0.2,0.2-0.4,0.2-0.6
	c-0.1,0.4-0.4,0.7-0.7,1c-0.5,0.4-0.9,1.2-0.9,1.8c-0.2,1.3,0.9,2,1.4,3.1c0.1,0.3,0.2,0.6,0.3,0.9c0,0.1,0,0.2,0,0.3
	c0.2-0.7,0.4-1.4,0.3-2.1c-0.2-0.8-0.5-1.6-0.5-2.5c0-0.3,0.1-0.6,0.2-0.8c-0.1,0.7-0.2,1,0.3,2c0,0,0,0.1,0.1,0.1
	c0.2-0.2,0.3-0.5,0.4-0.7c0.6-0.7,1.3-1.5,2.2-1.5c-1.2-0.3-2.1,0.7-2.7,1.6c-0.2-0.5,0-1.2,0.1-1.7c0.2-0.6,0.6-1,0.8-1.6
	C-264.1,376.9-264,376.7-264.1,376.6 M-271.3,377.1c-1-0.2-1.9,0.7-2.8,1c-0.1,0.1-0.3,0-0.4,0.1c1,0.2,1.6-0.6,2.5-0.7
	c0.3,0,0.6,0,0.8,0.3c0.3,0.5,0,1-0.2,1.4c-0.3,0.7-1,1.3-1.4,2c-0.1,0.3-0.3,0.7-0.1,1.1h0c0-0.8,0.6-1.4,1.1-1.9
	c0.7-0.7,1.4-1.7,0.9-2.6C-271,377.4-271.1,377.2-271.3,377.1 M-268.4,377.6c-0.1,0.3-0.1,0.8-0.1,1.1c0.1,0.3,0.3,0.6,0.4,0.9
	C-268.2,378.9-268.4,378.3-268.4,377.6L-268.4,377.6z M-274.8,379.1c-0.1,0.1-0.3,0-0.3,0.2c0.8-0.1,1.5-0.3,2.2-0.8
	C-273.5,378.6-274.1,378.9-274.8,379.1 M-275.6,379c0,0.3,0.1,0.6,0,0.9c0,0.2-0.2,0.4-0.2,0.7c0-0.1,0.1,0,0.2-0.1
	C-275.3,379.9-275.3,379.4-275.6,379 M-274.9,379.6c0,0,0,0.1,0,0.1l0.4,0c0.6,0,1.1-0.2,1.7-0.4
	C-273.6,379.4-274.3,379.5-274.9,379.6 M-274.7,380c-0.1,0-0.3-0.1-0.3,0.1l0.5,0.2c0.5,0.1,0.7,0,1.1,0
	C-273.9,380.2-274.3,380.1-274.7,380 M-250,380.3c-0.7-0.1-1.9-0.3-2.6-0.2c0.6,0.1,1.4,0.3,2,0.4c1.3,0.4,2.4,0.7,3.5,1.5
	c-1.8-0.3-3.6-0.2-5.2,0.2c-2,0.6-3.9,1.5-5.7,2.5c1.2-0.4,2.5-0.9,3.7-1.4c3.5-1.1,4.5-1.5,7.2-1.3c0.1,0,0.2,0.1,0.3,0
	c0-0.1-0.1-0.2-0.2-0.3C-248,381.1-248.7,380.6-250,380.3 M-240.6,383.8c-0.1,0-0.1-0.2-0.3-0.1c0.7,0.6,1.2,1.4,1.4,2.3
	c0.2,0.7,0.5,1.4,0.9,2c0.6,0.8,1,1.4,1.1,2.4l0,0c-1.2,0.1-2.3-0.2-3.4-0.7c-1.4-0.7-2.5-1.8-3.7-3c-0.4-0.3-0.8-0.6-1.3-0.7
	c0,0,0.1,0,0.1,0.1c1.4,0.8,2.1,2.5,3.5,3.3c1.4,1,3.2,1.4,5,1.1c0-0.7-0.1-1.3-0.4-1.9c-0.4-1-1.3-1.9-1.5-3
	C-239.4,384.9-239.9,384.4-240.6,383.8 M-247.6,384.3c-0.5,0.1-0.9,0.3-1.4,0.6c-2.3,1.2-4.2,3.4-6.6,4.1c0.2,0,0.4,0,0.6-0.1
	c1.2-0.4,2.4-0.9,3.4-1.6c1.4-1.1,2.6-2.3,4.2-2.9L-247.6,384.3z M-264.8,386.7c-0.1,0.3,0,0.5,0.1,0.8c-0.2-0.1-0.3-0.3-0.4-0.5
	c0,0,0-0.1-0.1-0.1c0,0.5,0.4,1,0.8,1.3c0.8,0.6,1.8,0.7,2.6,1.3l0-0.1c-0.4-0.6-1.3-0.7-1.4-1.5h0c0,0.2,0.1,0.4,0.2,0.6
	c-0.5-0.1-0.7-0.7-0.9-1.1c-0.1,0.1,0,0.2,0,0.3c0,0.1,0.1,0.3,0.1,0.4C-264.5,387.7-264.7,387.2-264.8,386.7 M-261.4,387.3
	c0.1,0.7,0.8,1.4,1.4,1.6c0.4,0.5,0.4,1.2,0.5,1.6c0.2,1.4,0.7,2,1.1,3.3c0.1,0.4,0.1,0.9,0.1,1.3l0,0c0.4-0.9-0.1-1.8-0.4-2.7
	c-0.3-0.8-0.4-1.6-0.5-2.4c-0.1-0.5-0.1-1.1-0.5-1.5C-260.4,388.4-261,388-261.4,387.3 M-236,390.6l0,0.1c0.3,0.2,0.8,0.2,1.2,0.3
	c1.1,0.2,1.7,0,2.7,1.1c0.4,0.7,0.6,1.3,1,2l0.1,0c-0.3-0.7-0.5-1.3-0.8-2c-0.2-0.6-0.7-1-1.3-1.1C-234,390.9-235.1,390.8-236,390.6
	"/>
<path fill="#3950A3" d="M-244.5,388.5L-244.5,388.5c-1.1,1.1-2.5,2.2-3.3,3.5c-0.1,0.3-0.3,0.5-0.4,0.8c0.2-1.6,0.5-2.4,0.9-3.5
	c-0.7,1-1.2,2.2-1.2,3.6c0,0.6,0.1,1.1,0.2,1.7c0,0.5-0.5,0.7-0.8,0.8c-0.2,0.1-0.4,0.2-0.7,0.3c0.1-0.3,0.4-0.4,0.5-1.1
	c0-0.7-0.1-1.4,0.1-2.1c0-0.1,0-0.1,0-0.1c-0.1,0.2-0.2,0.4-0.3,0.6c-0.2,1,0,2.2-0.9,2.9c-0.5,0.4-1,0.6-1.4,1l-0.4,0.1l-1.3,0
	c0-0.2,0.1-0.5,0.4-0.6c0.1-0.1,0.3-0.1,0.4-0.3c-0.1-0.1-0.2,0.1-0.3,0.1c-0.4,0.1-0.8,0.3-0.9,0.7c0,0.3-0.4,0.1-0.5,0.1
	c-0.1,0-0.3,0-0.4,0c0-0.3,0.3-0.5,0.5-0.7c0.1-0.1,0.4-0.2,0.4-0.3c-0.3,0.1-0.7,0.1-0.9,0.5c-0.1,0.2-0.4,0.4-0.4,0.6
	c-0.2,0-0.4,0-0.6,0c-0.1-0.1-0.1-0.2,0-0.3c0.1-0.2,0.2-0.4,0.4-0.5l0,0c0.1-0.3,0.4-0.6,0.8-0.6c0.6,0,1.2,0,1.7-0.3
	c0.7-0.4,1.7-1,2-1.9c0.3-1,0-2.1-0.1-3.1c-0.1-0.5-0.1-1-0.1-1.5l0-0.1c1.3-0.7,2.6-1.5,4.1-1.7
	C-245.9,387-245.2,387.8-244.5,388.5"/>
<path fill="#3950A3" d="M-269.1,391.4c-0.2,0.1-0.4,0.2-0.6,0.3c-1,0.7-2,1.4-2.8,2.4c-0.5,0.7-1.2,1.3-1.9,1.7l0,0
	c0.7-1.2,0.5-2.8,1.4-3.9c0.2-0.2,0.5-0.4,0.6-0.7c-0.7,0.4-1.3,0.9-1.6,1.7c-0.4,0.9-0.3,2.1-0.9,2.9c-0.3,0.3-0.5,0.5-0.8,0.6
	c-0.4,0-0.7,0.2-0.9,0.5l-0.2,0.1c-0.4,0-0.8,0-1.2,0v0c0.1-0.2,0.2-0.5,0.4-0.6l0,0c0.1-0.1,0.3-0.1,0.4-0.2c0,0,0-0.1-0.1-0.1
	c-0.1,0-0.1,0.1-0.1,0c-0.3,0-0.5,0.2-0.7,0.4v0l0,0c-0.1,0.2-0.2,0.4-0.3,0.5c-0.3,0-0.4,0-0.7,0l0,0h0c0-0.1,0-0.1,0-0.2
	c0.1-0.1,0.2-0.3,0.3-0.4c0.1,0,0-0.1,0.1-0.1c0,0,0.1-0.1,0.1-0.1c0.1-0.1,0.3-0.1,0.4-0.2c-0.1,0-0.2,0-0.3,0v0c0,0-0.1,0-0.1,0
	c-0.1,0-0.2,0.1-0.2,0c-0.2,0.2-0.3,0.4-0.5,0.6c-0.1,0.1-0.3,0.3-0.3,0.5c-0.2,0-0.4,0-0.6,0c-0.1-0.2,0.1-0.3,0.1-0.4
	c0.3-0.3,0.6-0.9,1.1-1c0.7,0,1.4,0.1,2-0.3c0.6-0.4,0.8-1.2,1.3-1.6c0-0.1,0.1-0.2,0.2-0.3c0.5-0.7,1-1.4,1.5-2.1
	c0.6-0.8,1.1-1.7,1.4-2.6C-271.4,389.6-270.1,390.4-269.1,391.4"/>
<path fill="#BCA670" d="M-270.1,423.1c0.1,0.1,0.2,0.3,0.3,0.5l0,0.1c-0.4,0.3-0.8,0.6-0.9,1l0,0c0.9-1.1,2.2-1.7,3.7-1.6
	c1,0.2,1.8,1,2.5,1.8c1.4-0.1,2.5,0.8,3.2,1.9l0.3,0.4c-0.5-0.1-1-0.1-1.4,0.1c0.5,0.1,1.1,0.1,1.6,0.3c1,0.2,1.7,0.9,2.5,1.7
	c0.6,0.4,1.5,0.3,2.2,0.4c0.4,0.1,0.8,0.3,1.3,0.2c1.3-0.3,2.7-0.6,4.1-0.6c3.1-0.1,5.8,0.9,8.5,1.9c1.1,0.4,2.2,1.2,3,2.3
	c1.3,1.7,3,3.7,5.1,4.3c0.5,0.1,1.1,0,1.6-0.3c0.6-0.4,0.8-1.3,0.6-2c-0.2-0.5-0.4-1-0.9-1.3c-0.7-0.6-1.8-1.1-1.6-2.2
	c0.3-0.8,1-1.5,1.5-2.2l0,0c0,0.5,0.1,1,0.4,1.4c0.1-0.1,0-0.3,0.1-0.4c0.1-0.2,0.2-0.4,0.4-0.6c0.1,0.3,0.2,0.7,0.3,1
	c0.1,0.5,0.1,1.1,0,1.5c0,0,0,0.1,0,0c0.1-0.2,0.3-0.4,0.5-0.5c-0.7,1.5,0.5,3,0,4.6c-0.1,0.7-0.8,1.4-1.4,1.5
	c-0.4,0.2-0.9,0.2-1.4,0.1c-1.4-0.1-2.7-0.8-3.9-1.4c-0.1,0-0.2-0.2-0.4-0.2c0.3,0.5,0.7,1,1.2,1.4c1.1,0.9,2.3,1.7,3.8,1.9
	c0.7,0.1,1.6,0.1,2.1,0.6c0.3,0.5,0.1,1.2,0.2,1.8c0.1,1,0.6,1.8,1,2.7c0.1,0.3-0.1,0.5-0.4,0.8c-0.5,0.2-0.6,0.8-1,1.1
	c-0.4,0-0.8,0-1.2,0c0-0.2,0.1-0.4,0.2-0.5c0.1-0.2,0.4-0.2,0.5-0.4c-0.3,0-0.7,0.2-0.8,0.5l-0.1,0.4c-0.3,0-0.7,0-1,0
	c0-0.2,0.2-0.3,0.2-0.5c0.1-0.3,0.5-0.3,0.7-0.5c-0.1,0-0.2,0.1-0.3,0c-0.2,0.1-0.4,0.1-0.5,0.3c-0.1,0.2-0.3,0.4-0.4,0.7
	c-0.2,0-0.4,0-0.7,0c-0.1,0-0.1-0.1,0-0.2c0.2-0.3,0.3-0.6,0.5-0.8c0.3-0.1,0.8,0,1.1-0.2c0.3-0.2,0.7-0.3,0.8-0.7
	c0-0.7-0.3-1.4-0.6-2c-0.4-0.6-1-0.9-1.7-0.9c-1.5-0.2-3.2-0.2-4.7-0.7c-1.5-0.5-2.9-1.3-4.2-2.4c-0.8-0.8-1.7-1.8-2.8-2.2
	c-1-0.2-2,0.3-2.8,0.7c-1.6,0.8-3.2,1.7-4.9,2.1c-1.1,0.4-2.5,0.3-3.7,0.3c-0.4-1,0.4-2.4-0.7-3.1c-0.7-0.4-1.6-1.1-1.9-1.8
	c0,0,0,0,0,0.1l0-0.1l0,0c0.1,0.9,1,1.7,1.7,2.2c0.9,0.7,0.1,2.2,0.8,3c-0.2,0-0.4-0.1-0.5-0.3l0,0c0,0.4,0,0.9,0.2,1.3
	c-0.2-0.1-0.3-0.2-0.4-0.4c0,0.5,0.2,1,0.3,1.4c0.3,1.1,0.8,2.1,0.9,3.2c0,0.7-0.9,0.7-1.2,1.2c-0.1,0.1-0.2,0.2-0.3,0.2
	c-0.5,0-1.1,0-1.7,0c-0.1-0.1,0-0.2,0-0.4c0.1-0.4,0.5-0.4,0.7-0.6c-0.3,0-0.7,0.1-0.9,0.4c-0.1,0.2-0.1,0.4-0.2,0.5
	c-0.2,0-0.5,0-0.7,0c0-0.1,0.1-0.3,0.1-0.4c0.1-0.3,0.5-0.5,0.8-0.7c0,0,0,0,0-0.1c-0.2,0-0.4,0.1-0.7,0.2c-0.2,0.2-0.4,0.5-0.6,0.7
	c0,0.1,0,0.2-0.1,0.3h-0.5c-0.1-0.3,0.1-0.4,0.3-0.6c0.2-0.2,0.4-0.6,0.7-0.7c0.6,0,1.4,0.1,1.7-0.5c0.2-0.5-0.2-0.9-0.3-1.4
	c-0.8-1.8-2.5-3-4-4.4c-0.8-1-1.5-2-1.5-3.3c0-0.7,0.2-1.6,0-2.3c0,0,0,0-0.1,0c0,0.3,0,0.5,0,0.7c-0.1,1.1-0.5,2.2-0.1,3.1
	c0.2,0.7,0.9,1.5,1.4,2c-0.8-0.3-1.6-0.4-2.1-1.3c-0.1-0.2-0.2-0.7-0.1-0.9c0-0.1,0.2-0.1,0.2-0.2c-0.6-0.4-0.8-1.2-0.9-2v0
	c-0.1,0.2,0,0.4-0.1,0.6c0,0.5,0.1,1,0.5,1.4c-0.2,0.2-0.4,0.7-0.3,1c0.1,0.6,0.6,0.9,1.2,1.1c0.3,0.2,0.6,0.2,0.9,0.3
	c-0.7,0.1-1.5,0.3-2.1,0c-0.6-0.2-1.1-0.7-1.2-1.4c-0.1-0.5-0.1-1.1-0.6-1.5c0.3,0.1,0.6,0.4,0.8,0.6c0,0,0-0.1,0-0.1
	c-0.3-0.6-0.9-0.9-1.3-1.3c-0.5-0.8-0.3-1.6-0.2-2.5c0.1-0.4,0.2-0.8,0.3-1.2c-0.1,0-0.1,0.1-0.1,0.1c-0.4,0.9-0.7,1.8-0.6,2.9
	c0,0.5,0.4,1.2,0.9,1.6c0.5,0.5,0.3,1.3,0.7,1.9c0.4,0.7,1.1,1,1.7,1.5v0c-0.5-0.1-1-0.2-1.5-0.2c0.1,0.6,0.2,1.3,0,1.9
	c-0.4-1-1.4-1.7-2.2-2.4c-0.7-0.7-0.8-1.8-0.4-2.6c0.2,0.9,1,1.6,1.6,2.3c0.2,0.2,0.3,0.5,0.4,0.7c0-0.9-0.6-1.3-1-2
	c-0.3-0.5-0.7-1.1-0.7-1.6c0-0.1,0-0.2-0.1-0.3l0,0.1c0,0.1,0,0.3-0.1,0.4c-0.5,0.7-1,1.1-0.2,2.6c-0.9-0.7-1.5-1.7-1.6-2.8
	c0-0.3,0-0.5,0-0.8c0.2,0.1,0.3,0.2,0.4,0.3l0,0c-0.3-1.4,0-2.7,0.2-4.3l0,0c-0.2,0.3-0.2,0.6-0.4,0.9c0,0.1,0,0.3-0.1,0.4h0
	c0,0.1,0,0.2-0.1,0.3c-0.1,0.7-0.2,1.5-0.1,2.1c-0.5-0.7-0.6-1.5-0.5-2.4l0.1-0.5c-0.1,0-0.2,0.2-0.3,0.3c0.1-0.4,0.2-1.1-0.2-1.5
	c-0.3,0-0.4,0.3-0.6,0.5c-0.2,0.4-0.6,0.7-1.1,0.8c-0.2,0.1-0.3,0.3-0.3,0.5c-0.3-0.1-0.7-0.3-0.8-0.7c-0.1-0.2-0.2-0.4-0.3-0.6
	c0-0.1,0-0.2-0.1-0.3c0.1-0.1,0-0.3,0.1-0.3c0.4,0,0.7,0.3,1,0.4c0.2,0,0.4-0.1,0.5-0.3l0-0.2c-0.1,0-0.1-0.1-0.1-0.1
	c-0.4-0.4-1.1-0.1-1.6-0.2c-0.4-0.1-0.5-0.6-0.7-0.9c-0.1-0.1-0.3-0.3-0.3-0.5c0.1-0.1,0.3,0,0.5,0c0.1,0,0.3-0.1,0.4-0.1
	c0,0.1,0,0.2-0.1,0.2v0c-0.1,0-0.2-0.1-0.3,0c-0.1,0.1-0.1,0.3-0.1,0.4c0,0,0.1,0,0.1-0.1c0.1-0.1,0.3-0.1,0.5-0.3
	c0.1-0.2,0.2-0.4,0.1-0.6c-0.2,0.2-0.6,0.1-0.8,0.1c0.1-0.3,0.5-0.6,0.7-0.9c0.4-0.3,0.8-0.6,1-1.1l0.4-0.4c0.1-0.4,0.4-0.9,0.9-1
	c0.2-0.1,0.5-0.1,0.7-0.2c0.7-0.7,1.6-0.9,2.2-1.7c0.3-0.4,0.5-0.9,0.6-1.4C-270.7,422.5-270.4,422.8-270.1,423.1 M-267.9,423.9
	c-0.2,0.1-0.4,0.2-0.7,0.3c-0.8,0.4-1.3,1.3-1.2,2.1c0,0.5,0.2,0.9,0.3,1.4c-0.3-0.6-0.6-1.1-0.7-1.7c0,0.3,0.1,0.5,0.1,0.8h0
	c-0.4-0.3-0.9-0.6-1.1-1.1c0,0.1,0,0.2,0,0.3c0.3,0.6,0.6,1,1.1,1.2l0.6,0.7c0.4,0.8,0.2,1.8-0.3,2.5c-0.3,0.4-0.6,0.8-1,1.2
	c0.1-0.5,0.2-1,0.3-1.5c0,0-0.1,0.1-0.1,0.2c-0.3,1-0.7,1.8-1.1,2.9c0-0.6,0.2-1.3,0.2-1.8c-0.4,1-0.6,2.3-0.3,3.4h0
	c0,0,0-0.1,0-0.1c0-0.8,0.5-1.5,0.8-2.1c0.5-1,1.4-1.7,1.8-2.6c0.5-1.3-0.3-2.4-0.3-3.7c0-0.8,0.4-1.6,1.2-1.9l0,0
	c-0.1,0.3-0.3,0.6-0.3,0.9c-0.1,0.6,0,1.2-0.2,1.8c0,0.1-0.1,0.3-0.1,0.4c0.4-0.7,0.7-1.3,0.7-2.2c0-0.5,0.2-0.9,0.3-1.3
	C-267.9,423.9-267.9,423.9-267.9,423.9 M-267.5,425.5c-0.2,0.3-0.4,0.5-0.4,0.8c-0.4,1.3,0.7,2.2,0.4,3.5c0,0,0,0.1,0,0.1h0
	c0.4-0.9,0.1-1.8-0.1-2.6C-267.8,426.7-267.9,426.1-267.5,425.5L-267.5,425.5z M-274.7,426.3c-0.1,0.1-0.2,0.3-0.2,0.5
	c0.1,0.1,0.1,0,0.2,0c0,0,0.1,0.1,0,0.1c-0.3,0.1-0.5,0.3-0.8,0.3c0,0-0.1,0-0.1,0.1c0.2,0,0.4,0,0.5,0c0.5-0.2,1-0.5,1.5-0.5
	c0,0,0,0,0-0.1c0,0,0-0.1-0.1-0.1C-273.9,426.5-274.4,426.6-274.7,426.3 M-264.1,426.6c-0.1,0.6-0.5,0.9-0.9,1.3c-0.5,0.5-1,1.3-1,2
	c0,1.3,1,2.1,0.7,3.4l0,0c-0.4-1.1-1.4-1.8-1.4-3c0-0.9,0.5-1.8,1-2.4c0.1-0.2,0.2-0.4,0.2-0.6c-0.1,0.4-0.4,0.7-0.7,1
	c-0.5,0.4-0.9,1.2-0.9,1.8c-0.2,1.3,0.9,2,1.4,3.1c0.1,0.3,0.2,0.6,0.3,0.9c0,0.1,0,0.2,0,0.3c0.2-0.7,0.4-1.4,0.3-2.1
	c-0.2-0.9-0.5-1.6-0.5-2.5c0-0.3,0.1-0.6,0.2-0.8c-0.1,0.7-0.2,1,0.3,2c0,0,0,0.1,0.1,0.1c0.2-0.2,0.3-0.5,0.4-0.7
	c0.6-0.7,1.3-1.5,2.2-1.5c-1.2-0.3-2.1,0.7-2.7,1.6c-0.2-0.5,0-1.2,0.1-1.7c0.2-0.6,0.6-1,0.8-1.6
	C-264.1,426.9-264,426.7-264.1,426.6 M-271.3,427.1c-1-0.2-1.9,0.7-2.8,1c-0.1,0.1-0.3,0-0.4,0.1c1,0.2,1.6-0.6,2.5-0.7
	c0.3,0,0.6,0,0.8,0.3c0.3,0.5,0,1-0.2,1.4c-0.3,0.7-1,1.3-1.4,2c-0.1,0.3-0.3,0.7-0.1,1.1h0c0-0.8,0.6-1.4,1.1-1.9
	c0.7-0.7,1.4-1.7,0.9-2.6C-271,427.4-271.1,427.2-271.3,427.1 M-268.4,427.6c-0.1,0.3-0.1,0.8-0.1,1.1c0.1,0.3,0.3,0.6,0.4,0.9
	C-268.2,428.9-268.4,428.3-268.4,427.6L-268.4,427.6z M-274.8,429.1c-0.1,0.1-0.3,0-0.3,0.2c0.8-0.1,1.5-0.3,2.2-0.8
	C-273.5,428.6-274.1,428.9-274.8,429.1 M-275.6,429c0,0.3,0.1,0.6,0,0.9c0,0.2-0.2,0.4-0.2,0.7c0-0.1,0.1,0,0.2-0.1
	C-275.3,429.9-275.3,429.4-275.6,429 M-274.9,429.6c0,0,0,0.1,0,0.1l0.4,0c0.6,0,1.1-0.2,1.7-0.4
	C-273.6,429.4-274.3,429.5-274.9,429.6 M-274.7,430c-0.1,0-0.3-0.1-0.3,0.1l0.5,0.2c0.5,0.1,0.7,0,1.1,0
	C-273.9,430.2-274.3,430.1-274.7,430 M-250,430.3c-0.7-0.1-1.9-0.3-2.6-0.2c0.6,0.1,1.4,0.3,2,0.4c1.3,0.4,2.4,0.7,3.5,1.5
	c-1.8-0.3-3.6-0.2-5.2,0.2c-2,0.6-3.9,1.5-5.7,2.5c1.2-0.4,2.5-0.9,3.7-1.4c3.5-1.1,4.5-1.5,7.2-1.3c0.1,0,0.2,0.1,0.3,0
	c0-0.1-0.1-0.2-0.2-0.3C-248,431.1-248.7,430.6-250,430.3 M-240.6,433.8c-0.1,0-0.1-0.2-0.3-0.1c0.7,0.6,1.2,1.4,1.4,2.3
	c0.2,0.7,0.5,1.4,0.9,2c0.6,0.8,1,1.4,1.1,2.4l0,0c-1.2,0.1-2.3-0.2-3.4-0.7c-1.4-0.7-2.5-1.8-3.7-3c-0.4-0.3-0.8-0.6-1.3-0.7
	c0,0,0.1,0,0.1,0.1c1.4,0.8,2.1,2.5,3.5,3.3c1.4,1,3.2,1.4,5,1.1c0-0.7-0.1-1.3-0.4-1.9c-0.4-1-1.3-1.9-1.5-3
	C-239.4,434.9-239.9,434.4-240.6,433.8 M-247.6,434.3c-0.5,0.1-0.9,0.3-1.4,0.6c-2.3,1.2-4.2,3.4-6.6,4.1c0.2,0,0.4,0,0.6-0.1
	c1.2-0.4,2.4-0.9,3.4-1.6c1.4-1.1,2.6-2.3,4.2-2.9L-247.6,434.3z M-264.8,436.7c-0.1,0.3,0,0.5,0.1,0.8c-0.2-0.1-0.3-0.3-0.4-0.6
	c0,0,0-0.1-0.1-0.1c0,0.5,0.4,1,0.8,1.3c0.8,0.6,1.8,0.7,2.6,1.3l0-0.1c-0.4-0.6-1.3-0.7-1.4-1.5h0c0,0.2,0.1,0.4,0.2,0.6
	c-0.5-0.1-0.7-0.7-0.9-1.1c-0.1,0.1,0,0.2,0,0.3c0,0.1,0.1,0.3,0.1,0.4C-264.5,437.7-264.7,437.2-264.8,436.7 M-261.4,437.3
	c0.1,0.7,0.8,1.4,1.4,1.6c0.4,0.5,0.4,1.2,0.5,1.6c0.2,1.4,0.7,2,1.1,3.3c0.1,0.4,0.1,0.9,0.1,1.3l0,0c0.4-0.9-0.1-1.8-0.4-2.7
	c-0.3-0.8-0.4-1.6-0.5-2.4c-0.1-0.5-0.1-1.1-0.5-1.5C-260.4,438.4-261,438-261.4,437.3 M-236,440.6l0,0.1c0.3,0.2,0.8,0.2,1.2,0.3
	c1.1,0.2,1.7,0,2.7,1.1c0.4,0.7,0.6,1.3,1,2l0.1,0c-0.3-0.7-0.5-1.3-0.8-2c-0.2-0.6-0.7-1-1.3-1.1C-234,440.9-235.1,440.8-236,440.6
	"/>
<path fill="#BCA670" d="M-244.5,438.5L-244.5,438.5c-1.1,1.1-2.5,2.2-3.3,3.5c-0.1,0.3-0.3,0.5-0.4,0.8c0.2-1.6,0.5-2.4,0.9-3.5
	c-0.7,1-1.2,2.2-1.2,3.6c0,0.6,0.1,1.1,0.2,1.7c0,0.5-0.5,0.7-0.8,0.8c-0.2,0.1-0.4,0.2-0.7,0.3c0.1-0.3,0.4-0.4,0.5-1.1
	c0-0.7-0.1-1.4,0.1-2.1c0-0.1,0-0.1,0-0.1c-0.1,0.1-0.2,0.4-0.3,0.6c-0.2,1,0,2.2-0.9,2.9c-0.5,0.4-1,0.6-1.4,1l-0.4,0.1l-1.3,0
	c0-0.2,0.1-0.5,0.4-0.6c0.1-0.1,0.3-0.1,0.4-0.3c-0.1-0.1-0.2,0.1-0.3,0.1c-0.4,0.1-0.8,0.3-0.9,0.7c0,0.3-0.4,0.1-0.5,0.1
	c-0.1,0-0.3,0-0.4,0c0-0.3,0.3-0.5,0.5-0.7c0.1-0.1,0.4-0.2,0.4-0.3c-0.3,0.1-0.7,0.1-0.9,0.5c-0.1,0.2-0.4,0.4-0.4,0.6
	c-0.2,0-0.4,0-0.6,0c-0.1-0.1-0.1-0.2,0-0.3c0.1-0.2,0.2-0.4,0.4-0.5l0,0c0.1-0.3,0.4-0.6,0.8-0.6c0.6,0,1.2,0,1.7-0.3
	c0.7-0.4,1.7-1,2-1.9c0.3-1,0-2.1-0.1-3.1c-0.1-0.5-0.1-1-0.1-1.5l0-0.1c1.3-0.7,2.6-1.5,4.1-1.7
	C-245.9,437-245.2,437.8-244.5,438.5"/>
<path fill="#BCA670" d="M-269.1,441.4c-0.2,0.1-0.4,0.2-0.6,0.3c-1,0.7-2,1.4-2.8,2.4c-0.5,0.7-1.2,1.3-1.9,1.7l0,0
	c0.7-1.2,0.5-2.8,1.4-3.9c0.2-0.2,0.5-0.4,0.6-0.7c-0.7,0.4-1.3,0.9-1.6,1.7c-0.4,0.9-0.3,2.1-0.9,2.9c-0.3,0.3-0.5,0.5-0.8,0.6
	c-0.4,0-0.7,0.2-0.9,0.5l-0.2,0.1c-0.4,0-0.8,0-1.2,0v0c0.1-0.2,0.2-0.5,0.4-0.6l0,0c0.1-0.1,0.3-0.1,0.4-0.2c0,0,0-0.1-0.1-0.1
	c-0.1,0-0.1,0.1-0.1,0c-0.3,0-0.5,0.2-0.7,0.4v0l0,0c-0.1,0.2-0.2,0.4-0.3,0.5c-0.3,0-0.4,0-0.7,0l0,0h0c0-0.1,0-0.1,0-0.2
	c0.1-0.1,0.2-0.3,0.3-0.4c0.1,0,0-0.1,0.1-0.1c0,0,0.1-0.1,0.1-0.1c0.1-0.1,0.3-0.1,0.4-0.2c-0.1,0-0.2,0-0.3,0v0c0,0-0.1,0-0.1,0
	c-0.1,0-0.2,0.1-0.2,0c-0.2,0.2-0.3,0.4-0.5,0.6c-0.1,0.1-0.3,0.3-0.3,0.5c-0.2,0-0.4,0-0.6,0c-0.1-0.2,0.1-0.3,0.1-0.4
	c0.3-0.3,0.6-0.9,1.1-1c0.7,0,1.4,0.1,2-0.3c0.6-0.4,0.8-1.2,1.3-1.6c0-0.1,0.1-0.2,0.2-0.3c0.5-0.7,1-1.4,1.5-2.1
	c0.6-0.9,1.1-1.7,1.4-2.6C-271.4,439.6-270.1,440.4-269.1,441.4"/>
</svg>
