<?xml version="1.0" encoding="utf-8"?>
<!-- Generator: Adobe Illustrator 16.0.3, SVG Export Plug-In . SVG Version: 6.00 Build 0)  -->
<!DOCTYPE svg PUBLIC "-//W3C//DTD SVG 1.1//EN" "http://www.w3.org/Graphics/SVG/1.1/DTD/svg11.dtd">
<svg version="1.1" id="Layer_1" xmlns="http://www.w3.org/2000/svg" xmlns:xlink="http://www.w3.org/1999/xlink" x="0px" y="0px"
	 width="48px" height="120px" viewBox="0 0 48 120" enable-background="new 0 0 48 120" xml:space="preserve">
<g>
	<g>
		<path fill="#BDA770" d="M17.039,28.737h-3.514v-9.788l-4.028,6.785H7.519l-4.004-6.811v9.813H0V12.479h3.515l5.004,8.496
			l5.006-8.496h3.514V28.737z"/>
	</g>
	<g>
		<path fill="#BDA770" d="M20.896,11.35h1.746v14.87c0,0.448,0.088,0.754,0.267,0.917c0.176,0.161,0.485,0.243,0.927,0.243
			c0.06,0,0.146-0.004,0.26-0.012c0.115-0.007,0.229-0.018,0.349-0.032l0.254,1.017c-0.133,0.059-0.278,0.119-0.441,0.177
			c-0.161,0.059-0.331,0.112-0.51,0.16c-0.176,0.047-0.353,0.084-0.53,0.111c-0.177,0.025-0.342,0.038-0.495,0.038
			c-0.574,0-1.022-0.185-1.343-0.552c-0.32-0.369-0.481-0.918-0.481-1.647V11.35H20.896z"/>
		<path fill="#BDA770" d="M26.069,12.862c0-0.265,0.094-0.508,0.287-0.729c0.191-0.22,0.445-0.331,0.762-0.331
			c0.311,0,0.558,0.11,0.748,0.331c0.186,0.221,0.279,0.464,0.279,0.729c0,0.303-0.104,0.555-0.312,0.757
			c-0.205,0.204-0.443,0.304-0.716,0.304c-0.281,0-0.525-0.101-0.735-0.304C26.174,13.417,26.069,13.165,26.069,12.862z
			 M26.245,16.729h1.744v11.933h-1.744V16.729z"/>
		<path fill="#BDA770" d="M31.47,16.729v-0.928c0-1.525,0.365-2.674,1.089-3.448c0.726-0.773,1.714-1.16,2.968-1.16
			c0.455,0,0.901,0.056,1.338,0.166c0.434,0.111,0.754,0.235,0.959,0.376l-0.75,1.502c-0.11-0.082-0.338-0.201-0.681-0.359
			c-0.344-0.158-0.673-0.237-0.989-0.237c-0.83,0-1.418,0.22-1.756,0.663c-0.191,0.235-0.312,0.629-0.359,1.182
			c-0.047,0.552-0.071,1.3-0.071,2.243h2.808l-0.164,1.469h-2.644v10.464h-1.746V18.198h-1.614v-1.469H31.47z"/>
		<path fill="#BDA770" d="M45.858,26.529c-0.523,0.691-1.158,1.254-1.906,1.685c-0.748,0.431-1.728,0.646-2.934,0.646
			c-1.561,0-2.818-0.554-3.77-1.663c-0.949-1.108-1.424-2.671-1.424-4.69c0-1.761,0.432-3.195,1.293-4.303s2.125-1.664,3.789-1.664
			c1.406,0,2.52,0.388,3.336,1.16c0.817,0.775,1.279,1.853,1.384,3.239c0.041,0.521,0.055,1.071,0.03,1.646h-7.998
			c0,1.318,0.303,2.452,0.904,3.397c0.605,0.947,1.432,1.419,2.477,1.419c0.758,0,1.422-0.158,1.988-0.475
			c0.566-0.317,1.09-0.788,1.568-1.414L45.858,26.529z M40.887,17.911c-1.04,0-1.823,0.356-2.354,1.067
			c-0.528,0.711-0.812,1.515-0.851,2.414h6.198c-0.029-0.95-0.266-1.768-0.708-2.451C42.733,18.253,41.969,17.911,40.887,17.911z"/>
	</g>
</g>
<g>
	<g>
		<path fill="#999999" d="M17.039,68.711h-3.514v-9.788l-4.028,6.785H7.519l-4.004-6.811v9.813H0V52.453h3.515l5.004,8.496
			l5.006-8.496h3.514V68.711z"/>
	</g>
	<g>
		<path fill="#999999" d="M20.896,51.323h1.746v14.87c0,0.447,0.088,0.754,0.267,0.916c0.176,0.162,0.485,0.244,0.927,0.244
			c0.06,0,0.146-0.004,0.26-0.013c0.115-0.007,0.229-0.018,0.349-0.032l0.254,1.018c-0.133,0.059-0.278,0.119-0.441,0.177
			c-0.161,0.06-0.331,0.112-0.51,0.16c-0.176,0.047-0.353,0.084-0.53,0.11c-0.177,0.025-0.342,0.039-0.495,0.039
			c-0.574,0-1.022-0.186-1.343-0.553c-0.32-0.369-0.481-0.918-0.481-1.646v-15.29H20.896z"/>
		<path fill="#999999" d="M26.069,52.835c0-0.265,0.094-0.508,0.287-0.729c0.191-0.22,0.445-0.331,0.762-0.331
			c0.311,0,0.558,0.11,0.748,0.331c0.186,0.221,0.279,0.464,0.279,0.729c0,0.303-0.104,0.555-0.312,0.757
			c-0.205,0.204-0.443,0.304-0.716,0.304c-0.281,0-0.525-0.101-0.735-0.304C26.174,53.39,26.069,53.138,26.069,52.835z
			 M26.245,56.703h1.744v11.933h-1.744V56.703z"/>
		<path fill="#999999" d="M31.47,56.703v-0.928c0-1.525,0.365-2.674,1.089-3.448c0.726-0.773,1.714-1.16,2.968-1.16
			c0.455,0,0.901,0.056,1.338,0.166c0.434,0.111,0.754,0.235,0.959,0.376l-0.75,1.502c-0.11-0.082-0.338-0.201-0.681-0.359
			c-0.344-0.158-0.673-0.237-0.989-0.237c-0.83,0-1.418,0.22-1.756,0.663c-0.191,0.235-0.312,0.629-0.359,1.182
			c-0.047,0.552-0.071,1.3-0.071,2.243h2.808l-0.164,1.469h-2.644v10.464h-1.746V58.172h-1.614v-1.469H31.47z"/>
		<path fill="#999999" d="M45.858,66.503c-0.523,0.69-1.158,1.254-1.906,1.685c-0.748,0.432-1.728,0.646-2.934,0.646
			c-1.561,0-2.818-0.554-3.77-1.663c-0.949-1.108-1.424-2.671-1.424-4.69c0-1.761,0.432-3.194,1.293-4.303
			c0.861-1.108,2.125-1.664,3.789-1.664c1.406,0,2.52,0.388,3.336,1.16c0.817,0.775,1.279,1.853,1.384,3.239
			c0.041,0.521,0.055,1.071,0.03,1.646h-7.998c0,1.318,0.303,2.452,0.904,3.397c0.605,0.946,1.432,1.419,2.477,1.419
			c0.758,0,1.422-0.158,1.988-0.475c0.566-0.317,1.09-0.789,1.568-1.414L45.858,66.503z M40.887,57.884
			c-1.04,0-1.823,0.356-2.354,1.067c-0.528,0.711-0.812,1.515-0.851,2.414h6.198c-0.029-0.95-0.266-1.768-0.708-2.451
			C42.733,58.227,41.969,57.884,40.887,57.884z"/>
	</g>
</g>
<g>
	<g>
		<path fill="#FFFFFF" d="M17.039,108.561h-3.514v-9.789l-4.028,6.785H7.519l-4.004-6.811v9.812H0V92.302h3.515l5.004,8.496
			l5.006-8.496h3.514V108.561z"/>
	</g>
	<g>
		<path fill="#FFFFFF" d="M20.896,91.172h1.746v14.87c0,0.448,0.088,0.754,0.267,0.917c0.176,0.161,0.485,0.243,0.927,0.243
			c0.06,0,0.146-0.004,0.26-0.013c0.115-0.006,0.229-0.018,0.349-0.031l0.254,1.017c-0.133,0.06-0.278,0.119-0.441,0.177
			c-0.161,0.06-0.331,0.112-0.51,0.16c-0.176,0.047-0.353,0.084-0.53,0.111c-0.177,0.025-0.342,0.038-0.495,0.038
			c-0.574,0-1.022-0.185-1.343-0.552c-0.32-0.369-0.481-0.918-0.481-1.647v-15.29H20.896z"/>
		<path fill="#FFFFFF" d="M26.069,92.686c0-0.266,0.094-0.509,0.287-0.729c0.191-0.22,0.445-0.331,0.762-0.331
			c0.311,0,0.558,0.109,0.748,0.331c0.186,0.221,0.279,0.464,0.279,0.729c0,0.303-0.104,0.555-0.312,0.756
			c-0.205,0.205-0.443,0.305-0.716,0.305c-0.281,0-0.525-0.102-0.735-0.305C26.174,93.239,26.069,92.986,26.069,92.686z
			 M26.245,96.552h1.744v11.933h-1.744V96.552z"/>
		<path fill="#FFFFFF" d="M31.47,96.552v-0.928c0-1.524,0.365-2.674,1.089-3.448c0.726-0.773,1.714-1.16,2.968-1.16
			c0.455,0,0.901,0.057,1.338,0.166c0.434,0.111,0.754,0.235,0.959,0.377l-0.75,1.502c-0.11-0.082-0.338-0.201-0.681-0.359
			c-0.344-0.158-0.673-0.237-0.989-0.237c-0.83,0-1.418,0.22-1.756,0.663c-0.191,0.234-0.312,0.629-0.359,1.182
			c-0.047,0.553-0.071,1.301-0.071,2.243h2.808l-0.164,1.47h-2.644v10.463h-1.746V98.021h-1.614v-1.47H31.47z"/>
		<path fill="#FFFFFF" d="M45.858,106.352c-0.523,0.691-1.158,1.254-1.906,1.686c-0.748,0.431-1.728,0.646-2.934,0.646
			c-1.561,0-2.818-0.555-3.77-1.664c-0.949-1.107-1.424-2.67-1.424-4.689c0-1.762,0.432-3.195,1.293-4.303
			c0.861-1.108,2.125-1.664,3.789-1.664c1.406,0,2.52,0.388,3.336,1.16c0.817,0.774,1.279,1.853,1.384,3.238
			c0.041,0.521,0.055,1.071,0.03,1.646h-7.998c0,1.318,0.303,2.451,0.904,3.396c0.605,0.947,1.432,1.42,2.477,1.42
			c0.758,0,1.422-0.158,1.988-0.476s1.09-0.788,1.568-1.414L45.858,106.352z M40.887,97.732c-1.04,0-1.823,0.356-2.354,1.067
			c-0.528,0.711-0.812,1.515-0.851,2.414h6.198c-0.029-0.95-0.266-1.769-0.708-2.45C42.733,98.076,41.969,97.732,40.887,97.732z"/>
	</g>
</g>
</svg>
